<svg xmlns="http://www.w3.org/2000/svg" viewBox="0 0 1200 700"><defs><linearGradient id="g" x1="0" y1="0" x2="1" y2="1"><stop stop-color="#102a4a"/><stop offset="1" stop-color="#030914"/></linearGradient></defs><rect width="1200" height="700" fill="url(#g)"/><g fill="none" stroke="#45adff" stroke-width="4" opacity=".65"><circle cx="900" cy="350" r="250"/><circle cx="900" cy="350" r="190"/><path d="M650 470h500"/><path d="M720 510h360"/></g><g fill="#071321" stroke="#45adff" stroke-width="5"><path d="M155 425l75-105 155-42 235 10 105 82 155 15 75 60-35 48H165l-42-30z"/><path d="M395 278l58-92h175l85 102"/></g><g fill="#45adff"><circle cx="310" cy="488" r="58"/><circle cx="865" cy="488" r="58"/></g><g fill="#06101d"><circle cx="310" cy="488" r="30"/><circle cx="865" cy="488" r="30"/></g><path d="M210 355h250l-80-60h-125z" fill="#45adff" opacity=".18"/><text x="70" y="90" fill="#45adff" font-family="Arial" font-size="34" font-weight="700" letter-spacing="5">ANKA HYDRA</text><text x="70" y="132" fill="#9fcff2" font-family="Arial" font-size="20">SMART MOBILITY PLATFORM</text><path d="M950 105c-45 18-62 48-54 86 26-13 45-33 54-59 9 26 28 46 54 59 8-38-9-68-54-86z" fill="none" stroke="#45adff" stroke-width="5"/></svg>